<?xml version="1.0" encoding="UTF-8" standalone="no"?>
<!--part of the rodentia icon theme by sixsixfive released under CC0 (https://creativecommons.org/publicdomain/zero/1.0/) on openclipart-->
<svg xmlns="http://www.w3.org/2000/svg" xmlns:xlink="http://www.w3.org/1999/xlink" viewBox="0 0 48 48">
 <defs id="0">
  <linearGradient id="A">
   <stop id="L" stop-color="#fff" stop-opacity="0.8"/>
   <stop id="M" offset="1" stop-color="#fff" stop-opacity="0"/>
  </linearGradient>
  <linearGradient id="B">
   <stop id="N" stop-color="#888a85"/>
   <stop id="O" offset="1" stop-color="#555753"/>
  </linearGradient>
  <linearGradient id="C">
   <stop id="P" stop-color="#2e3436"/>
   <stop id="Q" offset="1" stop-color="#2e3436" stop-opacity="0"/>
  </linearGradient>
  <radialGradient cx="25.712" cy="48.735" r="21.856" id="D" xlink:href="#C" gradientUnits="userSpaceOnUse" gradientTransform="matrix(1,0,0,0.09243698,0,44.229759)"/>
  <radialGradient cx="13.559" cy="12.06" r="16.219" id="E" xlink:href="#B" gradientUnits="userSpaceOnUse" gradientTransform="matrix(0.6174379,2.5604989,-3.7886681,0.9135993,49.367351,-37.86865)"/>
  <linearGradient y1="2.438" x2="0" y2="43.34" id="F" xlink:href="#A" gradientUnits="userSpaceOnUse"/>
  <radialGradient cx="34.13" cy="8.609" r="3.03" id="G" xlink:href="#B" gradientUnits="userSpaceOnUse" gradientTransform="matrix(1.9999999,2.0717464e-7,-2.1678585e-7,2.0927836,-34.124995,-9.2675658)"/>
  <linearGradient x1="34.13" y1="8.75" x2="36.533" y2="6.363" id="H" xlink:href="#A" gradientUnits="userSpaceOnUse"/>
  <filter x="-0.16" y="-0.151" width="1.321" height="1.302" color-interpolation-filters="sRGB" id="I">
   <feGaussianBlur stdDeviation="0.5327" id="R"/>
  </filter>
 </defs>
 <path d="m 47.568058,48.734642 a 21.855595,2.0202651 0 1 1 -43.7111893,0 21.855595,2.0202651 0 1 1 43.7111893,0 z" transform="matrix(1.0944165,0,0,0.9661277,-4.1401442,-2.4030967)" id="1" opacity="0.54" fill="url(#D)"/>
 <path d="M 9.84375,1.367375 C 8.1263501,1.367375 6.75,2.7437253 6.75,4.461125 l 0,37.15625 c 0,1.7174 1.3763496,3.093751 3.09375,3.09375 l 28.3125,0 c 1.7174,0 3.09375,-1.376351 3.09375,-3.09375 l 0,-33.21875 -6.75,-7.03125 -24.65625,0 z" id="2" fill="#2e3436"/>
 <path d="m 9.84375,2.25 c -1.1586131,0 -2.0625,0.903887 -2.0625,2.0625 l 0,37.15625 c 0,1.158614 0.9038868,2.062501 2.0625,2.0625 l 28.3125,0 c 1.158613,0 2.0625,-0.903888 2.0625,-2.0625 l 0,-32.78125 L 34.0625,2.25 9.84375,2.25 z" transform="translate(4.4958504e-8,0.148625)" id="3" fill="url(#E)"/>
 <path d="m 9.84375,2.75 c -0.8977312,0 -1.5625,0.6647689 -1.5625,1.5625 l 0,37.15625 c 0,0.897732 0.6647689,1.562501 1.5625,1.5625 l 28.3125,0 c 0.897731,0 1.5625,-0.66477 1.5625,-1.5625 l 0,-32.625 -5.875,-6.09375 -24,0 z" transform="translate(4.4958504e-8,0.148625)" id="4" opacity="0.8" fill="none" stroke="url(#F)" stroke-linejoin="round" stroke-linecap="square"/>
 <path d="m 32.25,2.40625 0,6.875 c 0,0.956611 0.676661,1.593751 1.71875,1.59375 l 6.25,0 0,-1.8125 -6.9375,-6.65625 -1.03125,0 z" id="5" opacity="0.16" fill="#2e3436" filter="url(#I)"/>
 <path d="m 33.125,1.375 0,6.3125 c -2e-6,1.158614 0.903887,2.062501 2.0625,2.0625 l 6.0625,0 0,-1.34375 -6.75,-7.03125 -1.375,0 z" id="6" fill="#2e3436"/>
 <path d="m 34.125,2.40625 0,5.28125 c -10e-7,0.6407004 0.421799,1.0625006 1.0625,1.0625 l 5,0 -6.0625,-6.34375 z" id="7" fill="url(#G)"/>
 <path d="m 34.625,3.6875 0,4 c -10e-7,0.3773049 0.185194,0.5625003 0.5625,0.5625 l 3.84375,0 L 34.625,3.6875 z" id="8" opacity="0.8" fill="none" stroke="url(#H)" stroke-linecap="square"/>
 <g transform="translate(1.5973932e-7,-0.4998755)" id="9">
  <path d="m 17.599429,12.922774 c -0.463423,0.187903 -0.682787,0.724484 -0.491671,1.195829 l 0.673161,1.66021 c -0.739115,0.556766 -1.395662,1.211283 -1.949262,1.926342 l -1.659821,-0.702127 c -0.234216,-0.09908 -0.469631,-0.106393 -0.686027,-0.02078 -0.216395,0.08561 -0.404476,0.252233 -0.501887,0.482512 l -1.373726,3.247476 c -0.194823,0.460558 0.02753,0.975882 0.495963,1.174035 l 1.659821,0.702127 c -0.12759,0.895266 -0.140038,1.822247 -0.02483,2.740401 l -1.66021,0.673163 c -0.471345,0.191115 -0.703631,0.722229 -0.515727,1.185653 l 1.318565,3.251958 c 0.187904,0.463423 0.724484,0.682787 1.195829,0.491671 l 1.660211,-0.673161 c 0.556765,0.739115 1.211282,1.395663 1.926341,1.949262 l -0.702127,1.659822 c -0.198152,0.468431 0.0012,0.993091 0.461732,1.187914 l 3.247477,1.373726 c 0.460557,0.194822 0.97588,-0.02753 1.174034,-0.495963 l 0.702127,-1.659822 c 0.895266,0.12759 1.822246,0.140038 2.740401,0.02483 l 0.673163,1.66021 c 0.191114,0.471345 0.722231,0.703631 1.185653,0.515727 l 3.251955,-1.318565 c 0.463428,-0.187903 0.68279,-0.724484 0.491675,-1.195829 l -0.673161,-1.66021 c 0.739117,-0.556765 1.395664,-1.211283 1.949265,-1.926342 l 1.659819,0.702127 c 0.468427,0.198152 0.993089,-0.0012 1.187912,-0.461732 l 1.373723,-3.247476 c 0.194824,-0.460558 -0.02753,-0.975882 -0.495958,-1.174035 l -1.659824,-0.702126 c 0.127591,-0.895267 0.140039,-1.822248 0.02483,-2.740402 l 1.660206,-0.673163 c 0.471346,-0.191115 0.703631,-0.722229 0.515726,-1.185653 l -1.318562,-3.251958 c -0.187905,-0.463423 -0.724484,-0.682787 -1.19583,-0.491672 l -1.660209,0.673163 C 31.70342,17.080799 31.048903,16.424253 30.333849,15.870653 l 0.702124,-1.659821 c 0.19815,-0.468431 -0.0012,-0.993092 -0.46173,-1.187914 l -3.247481,-1.373726 c -0.460558,-0.194823 -0.975883,0.02753 -1.174032,0.495962 l -0.702127,1.659822 c -0.895267,-0.12759 -1.822247,-0.140038 -2.740402,-0.02483 l -0.673162,-1.66021 c -0.191116,-0.471345 -0.72223,-0.703631 -1.185654,-0.515727 l -3.251958,1.318565 z m 4.957091,7.556189 c 1.96514,-0.796802 4.20672,0.151415 5.003522,2.116556 0.796796,1.965141 -0.151419,4.206717 -2.116559,5.003519 -1.96514,0.796802 -4.206718,-0.151415 -5.003519,-2.116556 -0.796802,-1.96514 0.151415,-4.206717 2.116556,-5.003519 z" id="J" opacity="0.5" fill="#fff" display="block" stroke-width="0.958"/>
  <path d="m 17.599429,11.923024 c -0.463423,0.187903 -0.682787,0.724484 -0.491671,1.195829 l 0.673161,1.66021 c -0.739115,0.556766 -1.395662,1.211283 -1.949262,1.926342 l -1.659821,-0.702127 c -0.234216,-0.09908 -0.469631,-0.106393 -0.686027,-0.02078 -0.216395,0.08561 -0.404476,0.252233 -0.501887,0.482512 l -1.373726,3.247476 c -0.194823,0.460558 0.02753,0.975882 0.495963,1.174035 l 1.659821,0.702127 c -0.12759,0.895266 -0.140038,1.822247 -0.02483,2.740401 l -1.66021,0.673163 c -0.471345,0.191115 -0.703631,0.722229 -0.515727,1.185653 l 1.318565,3.251958 c 0.187904,0.463423 0.724484,0.682787 1.195829,0.491671 l 1.660211,-0.673161 c 0.556765,0.739115 1.211282,1.395663 1.926341,1.949262 l -0.702127,1.659822 c -0.198152,0.468431 0.0012,0.993091 0.461732,1.187914 l 3.247477,1.373726 c 0.460557,0.194822 0.97588,-0.02753 1.174034,-0.495963 l 0.702127,-1.659822 c 0.895266,0.12759 1.822246,0.140038 2.740401,0.02483 l 0.673163,1.66021 c 0.191114,0.471345 0.722231,0.703631 1.185653,0.515727 l 3.251955,-1.318565 c 0.463428,-0.187903 0.68279,-0.724484 0.491675,-1.195829 l -0.673161,-1.66021 c 0.739117,-0.556765 1.395664,-1.211283 1.949265,-1.926342 l 1.659819,0.702127 c 0.468427,0.198152 0.993089,-0.0012 1.187912,-0.461732 l 1.373723,-3.247476 c 0.194824,-0.460558 -0.02753,-0.975882 -0.495958,-1.174035 l -1.659824,-0.702126 c 0.127591,-0.895267 0.140039,-1.822248 0.02483,-2.740402 l 1.660206,-0.673163 c 0.471346,-0.191115 0.703631,-0.722229 0.515726,-1.185653 l -1.318562,-3.251958 c -0.187905,-0.463423 -0.724484,-0.682787 -1.19583,-0.491672 l -1.660209,0.673163 C 31.70342,16.081049 31.048903,15.424503 30.333849,14.870903 l 0.702124,-1.659821 c 0.19815,-0.468431 -0.0012,-0.993092 -0.46173,-1.187914 l -3.247481,-1.373726 c -0.460558,-0.194823 -0.975883,0.02753 -1.174032,0.495962 l -0.702127,1.659822 c -0.895267,-0.12759 -1.822247,-0.140038 -2.740402,-0.02483 l -0.673162,-1.66021 c -0.191116,-0.471345 -0.72223,-0.703631 -1.185654,-0.515727 l -3.251958,1.318565 z m 4.957091,7.556189 c 1.96514,-0.796802 4.20672,0.151415 5.003522,2.116556 0.796796,1.965141 -0.151419,4.206717 -2.116559,5.003519 -1.96514,0.796802 -4.206718,-0.151415 -5.003519,-2.116556 -0.796802,-1.96514 0.151415,-4.206717 2.116556,-5.003519 z" id="K" fill="#2e3436" display="block" stroke-width="0.958"/>
 </g>
</svg>
