<?xml version="1.0" encoding="utf-8"?>

<!DOCTYPE svg PUBLIC "-//W3C//DTD SVG 1.1//EN" "http://www.w3.org/Graphics/SVG/1.1/DTD/svg11.dtd">
<svg version="1.1" id="Layer_1" xmlns="http://www.w3.org/2000/svg" xmlns:xlink="http://www.w3.org/1999/xlink" x="0px" y="0px"
	 viewBox="-15.0417 -10.8974 1950.0834 1412.7948" enable-background="new -15.0417 -10.8974 1950.0834 1412.7948"
	 xml:space="preserve">
<g>
	<path fill="#BD9B74" stroke="#BD9B74" stroke-width="0.0938" d="M1850.61,42.64c5.47-4.69,12.34-8.02,19.64-8.24
		c8.63-0.46,17.83,3.42,22.4399,10.94c3,4.52,3.3401,10.33,2.26,15.52c-2.24,8.1-8.9199,13.95-15.75,18.33
		c-60.86,40.51-117.83,86.82-170.13,137.89c-26.0299,24.96-50.7799,51.21-75.9299,77.05c-27.83,28.82-55.88,57.57-86.66,83.3
		c-25.16,21.13-52.1799,40.11-80.9,56.1c-28.63,15.82-58.6899,29.18-89.7799,39.38c0.08-2.25,0.0299-4.51-0.1801-6.74
		c16.98-6.73,34.25-12.83,50.78-20.7c35.02-15.89,68.0599-36.08,98.45-59.65c28.42-21.95,54.42-46.82,79.74-72.24
		c24.8-25.52,49.41-51.24,74.3201-76.66c24.8199-24.87,50.1699-49.22,76.6899-72.26c36.9601-32.21,76.05-61.97,116.73-89.33
		c5.42-3.71,11.62-7.19,14.66-13.31c2.24-4.18,2.21-9.54-0.59-13.45c-4.3301-6.43-13.09-8.45-20.3101-6.59
		c-6.72,1.78-11.8199,6.81-17.08,11.06c-56.54,46.38-118.4301,86.08-183.46,119.45c-36.17,18.78-73.26,35.7-110.25,52.78
		c-32.3301,14.85-64.5901,29.97-95.65,47.34c-29.64,16.71-58.09,35.8-83.36,58.66c-20.86,18.57-39.38,39.71-55.52,62.48
		c-2.85,4.2-6.3,8.11-7.99,12.98c-2.7101-0.54-5.4401-0.9-8.17-1.21c17.9301-28.78,40.08-54.94,65.08-77.83
		c28.2001-25.8,60.3301-46.97,93.8501-65.2c33.87-18.6,69.14-34.46,104.1899-50.68c36.6801-16.93,73.36-33.95,108.9501-53.1
		C1738.38,126.04,1796.92,87.29,1850.61,42.64z"/>
	<path fill="#8F5444" stroke="#8F5444" stroke-width="0.0938" d="M1866.09,41.98c7.2201-1.86,15.98,0.16,20.3101,6.59
		c2.7999,3.91,2.83,9.27,0.59,13.45c-3.04,6.12-9.24,9.6-14.66,13.31c-40.6799,27.36-79.7699,57.12-116.73,89.33
		c-26.52,23.04-51.87,47.39-76.6899,72.26c-24.91,25.42-49.52,51.14-74.3201,76.66c-25.3199,25.42-51.3199,50.29-79.74,72.24
		c-30.39,23.57-63.4299,43.76-98.45,59.65c-16.53,7.87-33.8,13.97-50.78,20.7c-5.8-17.73-17.14-33.61-32.45-44.33
		c-9.3201-6.42-19.39-12.19-30.39-15.11c1.6899-4.87,5.14-8.78,7.99-12.98c16.14-22.77,34.66-43.91,55.52-62.48
		c25.27-22.86,53.72-41.95,83.36-58.66c31.0599-17.37,63.3199-32.49,95.65-47.34c36.99-17.08,74.08-34,110.25-52.78
		c65.0299-33.37,126.9199-73.07,183.46-119.45C1854.27,48.79,1859.37,43.76,1866.09,41.98 M1861.59,45.57
		c-3.63,2.69-6.58,6.15-9.9399,9.13c-48.3101,44.76-105.1901,78.9-162.84,110.13c-66.66,36.02-135.5801,67.66-202.14,103.87
		c-34.1001,18.68-67.6901,38.61-98.41,62.55c-25.5701,20.21-49.79,43.48-65.1801,72.57c10.2201,3.03,18.7301,9.56,27.62,15.12
		c34.12-43.14,75.77-79.74,119.8501-112.39c63.45-46.92,132.1399-86.01,200.1399-125.8c66.75-38.95,133.8-78.21,193.92-127.08
		c2.8201-2.6,6.9501-5.16,6.49-9.56C1867.98,42.3,1864.25,43.58,1861.59,45.57 M1865.23,64.24
		c-18.46,12.67-36.2999,26.22-53.79,40.19c-56.96,45.69-110.1,95.83-164.4299,144.52c-57.3201,51.08-115.97,101.46-181.96,141.14
		c-31.39,18.98-64.66,34.8-99.26,46.97c1.2899,2.35,2.84,4.55,4.51,6.65c2.4099,2.86,2.9099,6.68,3.96,10.14
		c10.22-0.75,20.1-3.85,29.86-6.81c43.87-14.52,82.46-41.07,118.3199-69.61c31.3301-25.12,60.6001-52.65,89.6901-80.28
		c11.12-10.9,22.14-21.9,33.27-32.79c15.4199-14.56,30.27-29.71,45.37-44.58c30.63-29.78,61.48-59.35,94.15-86.9
		c28.47-24.06,58.2799-46.75,90.6499-65.34c4.1001-2.57,9.7001-5.83,8.4-11.56C1876.67,55.08,1871.04,60.78,1865.23,64.24z"/>
	<path fill="#BD9C73" stroke="#BD9C73" stroke-width="0.0938" d="M1861.59,45.57c2.66-1.99,6.39-3.27,9.51-1.46
		c0.4601,4.4-3.6699,6.96-6.49,9.56c-60.12,48.87-127.17,88.13-193.92,127.08c-68,39.79-136.6899,78.88-200.1399,125.8
		C1426.47,339.2,1384.8199,375.8,1350.7,418.94c-8.8899-5.56-17.3999-12.09-27.62-15.12c15.39-29.09,39.61-52.36,65.1801-72.57
		c30.72-23.94,64.3099-43.87,98.41-62.55c66.5599-36.21,135.48-67.85,202.14-103.87C1746.46,133.6,1803.34,99.46,1851.65,54.7
		C1855.01,51.72,1857.96,48.26,1861.59,45.57z"/>
	<path fill="#563A2F" stroke="#563A2F" stroke-width="0.0938" d="M1865.23,64.24c5.8101-3.46,11.4401-9.16,18.74-8.26
		c1.3,5.73-4.2999,8.99-8.4,11.56c-32.37,18.59-62.1799,41.28-90.6499,65.34c-32.67,27.55-63.52,57.12-94.15,86.9
		c-15.1,14.87-29.9501,30.02-45.37,44.58c-11.13,10.89-22.15,21.89-33.27,32.79c-29.09,27.63-58.36,55.16-89.6901,80.28
		c-35.86,28.54-74.45,55.09-118.3199,69.61c-9.76,2.96-19.64,6.06-29.86,6.81c-1.05-3.46-1.55-7.28-3.96-10.14
		c-1.67-2.1-3.2201-4.3-4.51-6.65c34.6-12.17,67.87-27.99,99.26-46.97c65.99-39.68,124.6399-90.06,181.96-141.14
		c54.33-48.69,107.47-98.83,164.4299-144.52C1828.9301,90.46,1846.77,76.91,1865.23,64.24z"/>
	<path fill="#DEDEDC" stroke="#DEDEDC" stroke-width="0.0938" d="M1295.29,408.27c3.02-1.13,6.11-2.32,9.3199-2.75
		c2.73,0.31,5.46,0.67,8.17,1.21c11,2.92,21.0699,8.69,30.39,15.11c15.3099,10.72,26.6499,26.6,32.45,44.33
		c0.21,2.23,0.26,4.49,0.1801,6.74c-0.3601,6.35-3.9401,12.18-9.01,15.9c-5.78,4.73-13.4701,6.41-20.79,6.33
		c-3.27,0.02-6.8-0.7-9.74,1.11c-27.73,14.54-55.28,29.4-82.98,43.99c-5.86,2.79-11.14,6.79-17.36,8.77
		c-0.1801-2.29-0.41-4.57-0.66-6.84c8.52-5.37,17.75-9.47,26.55-14.35c19.0299-10.39,38.34-20.26,57.4299-30.56
		c6.1801-2.91,11.92-6.77,18.21-9.43c5.04-0.43,10.17,1.05,15.1901-0.24c6.9399-1.33,14.01-5.79,15.9-12.97
		c1.58-6.03-1.5901-11.83-3.99-17.16c-9.8601-21.1-29.91-35.79-51.39-43.55c-7.4301-2.37-16.64-0.72-21.4501,5.83
		c-4.1699,4.75-5.12,11.23-4.83,17.34c0.61,4.2-3.75,6.11-6.3199,8.51c-12.52,10.82-25.3401,21.29-37.8501,32.13
		c-11.35,9.26-22.1699,19.16-33.6899,28.19c-2.36-1.18-4.72-2.32-7.05-3.52c5.4301-3.59,10.0701-8.21,15.14-12.27
		c17.3-14.7,34.74-29.23,51.9401-44.05c3.3999-3.24,7.75-5.57,10.5-9.42c0.5399-3.33,0.1799-6.78,1.0699-10.06
		C1282.84,418.92,1287.67,411.45,1295.29,408.27z"/>
	<path fill="#C1C1C1" stroke="#C1C1C1" stroke-width="0.0938" d="M1291.71,419.74c4.8101-6.55,14.02-8.2,21.4501-5.83
		c21.48,7.76,41.5299,22.45,51.39,43.55c2.3999,5.33,5.5699,11.13,3.99,17.16c-1.89,7.18-8.9601,11.64-15.9,12.97
		c-5.02,1.29-10.15-0.19-15.1901,0.24c-6.2899,2.66-12.0299,6.52-18.21,9.43c-19.09,10.3-38.4,20.17-57.4299,30.56
		c-8.8,4.88-18.03,8.98-26.55,14.35c0.25,2.27,0.48,4.55,0.66,6.84c0.5599,16.11-6.15,31.64-15.51,44.45
		c-9.13,12.45-21.04,22.61-33.8101,31.16c-14.09,9.1-29.3199,16.44-45.24,21.71c-21.1,6.9-44.04,9.08-65.8099,4.22
		c-2.6801-0.53-5.3101-1.24-7.79-2.36c3.08-1.41,6.14-2.92,8.98-4.79c17.8101,4.73,36.76,3.11,54.46-1.4
		c16.1801-4.33,31.64-11.2,46-19.79c16.4301-9.96,31.62-22.76,41.8101-39.23c8.59-13.76,13.09-31.35,7.1-46.99
		c-6.1799-16.76-22.65-27.27-39.22-31.85c-10.58-2.97-21.66-1.94-32.3101,0c-2.0199-2.84-5.0699-4.77-8.6499-4.58
		c18.13-6.08,38.85-6.19,56.0399,2.83c2.3301,1.2,4.6901,2.34,7.05,3.52c11.52-9.03,22.34-18.93,33.6899-28.19
		c12.51-10.84,25.3301-21.31,37.8501-32.13c2.5699-2.4,6.9299-4.31,6.3199-8.51C1286.59,430.97,1287.54,424.49,1291.71,419.74
		 M1292.4,424.33c-1.48,4.53,0.2,9.23,0.64,13.79c-2.77-0.99-4.75,3.47-1.88,4.58c-1.51-0.22-2.4401,1.28-3.54,2
		c-24.74,21.48-50,42.39-74.5699,64.06c1.84,1.27,3.3899,3.26,5.6499,3.8c25.42-20.82,50.6001-41.97,76.02-62.81
		c1.3201-1.05,2.52-2.25,3.49-3.65c11.11,6.07,21.03,14.29,29.11,24.05c-5.86,4.37-12.35,7.78-18.5099,11.68
		c-25.88,15.83-51.9601,31.36-77.76,47.33c0.75,2.63,1.7999,5.16,3.0399,7.61c27.74-14.48,55.54-28.84,83.28-43.33
		c6.55-3.22,12.8199-7.03,19.6-9.77c0.24,0.3,0.73,0.91,0.97,1.21c1.0801-0.41,2.1901-0.78,3.3301-1.12
		c4.24,1.85,9.1899,2.91,13.6899,1.29c4.66-1.47,8.7001-5.03,10.4601-9.62c1.46-4.98-0.92-9.97-2.76-14.51
		c-2.2001,3.69-3.0701,8.29-6.74,10.98c-5.1901,5.06-12.9,3.2-19.3101,2.52c-9.5699-13.01-21.51-24.49-35.79-32.2
		c-0.48-5.91-2.2899-12.63,1.4501-17.88c2.97-3.99,8.47-3.03,12.8099-3.46c-2.83-2.43-6.26-4.47-10.08-4.54
		C1299.83,416.53,1294.42,419.37,1292.4,424.33z"/>
	<path fill="#FEFEFE" stroke="#FEFEFE" stroke-width="0.0938" d="M1292.4,424.33c2.02-4.96,7.4299-7.8,12.6-7.99
		c3.8199,0.07,7.25,2.11,10.08,4.54c-4.34,0.43-9.84-0.53-12.8099,3.46c-3.74,5.25-1.9301,11.97-1.4501,17.88
		c-2.63-1.32-5.1699-2.77-7.7799-4.1C1292.6,433.56,1290.92,428.86,1292.4,424.33z"/>
	<path fill="#5E5B5B" stroke="#5E5B5B" stroke-width="0.0938" d="M1291.16,442.7c-2.87-1.11-0.89-5.57,1.88-4.58
		c2.61,1.33,5.1499,2.78,7.7799,4.1c14.28,7.71,26.2201,19.19,35.79,32.2c1.96,2.89,3.4501,6.07,4.66,9.34
		c-1.14,0.34-2.25,0.71-3.3301,1.12c-0.24-0.3-0.73-0.91-0.97-1.21c-3.28-4.47-6.02-9.32-9.65-13.52
		c-8.08-9.76-18-17.98-29.11-24.05C1295.9,444.86,1293.53,443.77,1291.16,442.7z"/>
	<path fill="#FEFEFE" stroke="#FEFEFE" stroke-width="0.0938" d="M1287.62,444.7c1.1-0.72,2.03-2.22,3.54-2
		c2.37,1.07,4.74,2.16,7.0499,3.4c-0.97,1.4-2.1699,2.6-3.49,3.65c-25.4199,20.84-50.6,41.99-76.02,62.81
		c-2.26-0.54-3.8099-2.53-5.6499-3.8C1237.62,487.09,1262.88,466.18,1287.62,444.7z"/>
	<path fill="#969593" stroke="#969593" stroke-width="0.0938" d="M1355.92,471.9c3.6699-2.69,4.5399-7.29,6.74-10.98
		c1.84,4.54,4.22,9.53,2.76,14.51c-1.76,4.59-5.8,8.15-10.4601,9.62c-4.5,1.62-9.45,0.56-13.6899-1.29
		c-1.21-3.27-2.7001-6.45-4.66-9.34C1343.02,475.1,1350.73,476.96,1355.92,471.9z"/>
	<path fill="#969593" stroke="#969593" stroke-width="0.0938" d="M1327.3199,470.15c3.63,4.2,6.37,9.05,9.65,13.52
		c-6.78,2.74-13.0499,6.55-19.6,9.77c-27.74,14.49-55.54,28.85-83.28,43.33c-1.24-2.45-2.2899-4.98-3.0399-7.61
		c25.7999-15.97,51.88-31.5,77.76-47.33C1314.97,477.93,1321.46,474.52,1327.3199,470.15z"/>
	<path fill="#75C5F0" stroke="#75C5F0" stroke-width="0.0938" d="M1055.92,537.91c32.0299-7.68,58.89-28.27,90.01-38.35
		c3.58-0.19,6.63,1.74,8.6499,4.58c0.0701,1.2,0.2301,2.4,0.49,3.59c1.4701,1.49,3.6001,1.99,5.52,2.69
		c5.49,1.82,10.74,4.24,16.12,6.38c4.6001,3.23,8.12,8.37,7.4401,14.24c0.2,5.41-4.5601,8.96-8.79,11.32
		c-7,3.69-14.49,6.33-21.95,8.89c-5.6801,1.98-11.78,0.36-17.52,1.81c3.28,9.33,13.75,13.37,17.86,22.2
		c2.5,5.3,0.0601,11.76-4.11,15.46c-3.85,2.66-8.76,2.84-13.27,3.1201c-5.6899-1.55-11.58-0.69-17.37-0.75
		c-5.78,0.1299-11.66-0.79-17.33,0.7c-2.3401,0.01-4.6801-0.0099-7.01,0.04c4.0299,3.42,9.1699,6.35,10.8099,11.72
		c1.67,5.57-1.83,11.51-6.64,14.27c-6.14,3.52-13.1699,4.89-19.8099,7.15c0.99,3.14,2.15,6.45,1.53,9.8
		c-0.4801,2.57-2.16,4.69-3.8101,6.63c-2.84,1.87-5.9,3.38-8.98,4.79c-5.5701-1.02-10.64-3.67-15.78-5.91
		c1.74,6.6899,4.17,13.18,5.72,19.93c6.4,25.77,7.6101,53.24,0.49,79c-7.86,29.5099-25.96,55.27-47.5499,76.44
		c-29.27,28.54-64.12,50.5-99.55,70.5099c-48.6201,27.63-99.54,51.19-146.89,81.06c-15.48,9.88-30.7,20.32-44.44,32.5601
		c-15.27,13.28-29.03,28.8199-37.88,47.1699c-8.49,16.88-11.29,36.3301-9.07,55.03c2.11,18.87,9.08,36.8301,17.67,53.63
		c17.39,33.01,41.5,61.88,67.01,88.9c46.97,49.09,99.89,92.01,153.78,133.22c2.13,1.62,3.85,5.78,1.04,7.5701
		c-10.7,3.7999-22.24,1.95-33.34,2.33c-45.59-2.33-90.78-9.49-135.59-18c-91.22-17.21-181.61-39.15-270.24-66.83
		c-74.75-23.5601-148.39-51.25-218.45-86.55c-37.33-19.1801-73.71-40.4399-107.41-65.53c-33.63-25.25-65.08-54.22-88.86-89.13
		c-16.83-24.71-29.68-52.47-35.16-81.98c-5.09-26.11-4.56-53.27,1.07-79.25c3.49-16.72,10.53-32.67,20.48-46.55
		c18.62-25.91,46.64-43.31,75.77-55.21c40.65-16.36,84.1-24.28,127.38-29.86c40.2-5.09,80.65-7.99,121.1-9.98
		c94.53-5.02,189.34-6.17,283.54-16.25c60.09-6.62,120.42-16.44,177.2401-37.76c27.19-10.32,53.5099-23.5,76.7-41.19
		c18.04-13.82,34.28-30.24,46.68-49.35c10.94-16.06,18.61-34.12,24.33-52.63c0.56-2.1,1.6-4.43,0.4-6.51
		c-2.98-6.58-5.82-13.26-8.03-20.14c-1.83-5.59,5.26-10.31,10.13-8.09c2.07,1.59,3.7,3.68,5.73,5.34c2.96-1.74,6.5-2.36,9.6299-0.65
		C1014.4,541.61,1035.96,543.01,1055.92,537.91 M1076.64,538.68c-19.04,7.63-40.05,11.62-60.46,8.1
		c-4.79-0.6801-9.37-2.3701-14.18-2.8101c-3.07-2.05-6.68-3.03-10.19-3.98c2.69,5.04,7.81,7.95,11.42,12.22
		c-10.49-1.66-18.96-8.7401-26.12-16.13c9.05,25.63,22.05,50.21,40.17,70.61c12.84,14.4,28.72,26.4,46.88,33.19
		c4.4399,2.34,11.1-2.42,9.3199-7.48c-1.1799-3.2-4.1799-5.2401-5.71-8.25c8.5699-5.17,19.1699-5.5,27.85-10.46
		c2.6901-1.61,3.76-5.53,1.74-8.06c-4.4-5.57-11.49-7.76-16.86-12.13c-1.41-1.09-2.72-3.4-0.85-4.73
		c3.96-1.26,8.1799-1.29,12.2899-1.41c14.01-0.07,28.02,0.08,42.03-0.04c3.36-0.15,6.85-0.09,10.0801-1.21
		c3.9299-1.93,3.88-7.55,1.4299-10.66c-4.54-6.06-11.64-10.03-14.98-17.02c-0.91-1.7-1.45-4.25,0.65-5.32
		c7.1699-4.53,15.5499-6.6,23.4299-9.6c6.8201-2.63,14.01-4.68,20.1801-8.72c2.95-1.54,2.8199-5.49,1.4399-8.06
		c-2.3899-3.79-6.75-5.65-10.8099-7.04c-3.04-1.19-6.28-0.29-9.3201,0.36c-21.9399,4.86-42.4299,14.34-63.0499,23
		c-15.9401,6.36-32.4,14.05-50.01,12.59c-12.23-1.01-24.32-3.46-36.12-6.82c-0.03-0.29-0.09-0.87-0.12-1.16
		c4.94,1.52,10.11,2.08,15.25,2.4901c11.4199,0.5699,22.95,0.37,34.21-1.85c25.59-4.48,49.37-15.44,72.8201-26.19
		c6.83-3,13.5599-6.33,20.6899-8.57c-0.65-2.42-1.72-4.69-2.8099-6.92C1122.42,514.81,1100.71,529.42,1076.64,538.68 M983.28,569.08
		c-5.19,15.61-11.4901,30.96-20.25,44.93c-11.48,19.14-26.42,36.15-43.55,50.44c-19.82,16.53-42.27,29.72-65.79,40.23
		c-27.86,12.36-57.09,21.51-86.78,28.31c-34.9,8.3-70.44,13.63-106.06,17.68c-47.0099,5.52-94.3,7.94-141.53,10.71
		c-28.37,0.82-56.71,2.61-85.08,3.16c-10.72,1.1-21.51,0.66-32.24,1.7401c-43.05,1.83-86.1,4.1899-128.97,8.6299
		c-40.79,4.39-81.64,10.32-121.03,22.11c-30.11,9.24-59.98,22.01-83.63,43.31c-13.89,12.37-25.04,27.93-31.73,45.32
		c-7.15,18.54-9.6,38.5699-9.75,58.35c-0.32,23.67,4.25,47.32,12.78,69.37c17.54,45.28,50.33,82.88,86.91,114.01
		c28.54,24.3,59.96,45.01,92.43,63.65c32.36,18.62,66.09,34.76,100.29,49.71c41.8,18.02,84.45,34.02,127.7,48.21
		c80.21,26.5801,162.14,47.75,244.78,65.26c44.45,9.27,89.11,17.5801,134.04,24.14c22.31,3.26,44.69,6.28,67.19,7.79
		c4.53,0.02,9.35,0.99,13.63-0.9301c-17.23-13.74-34.95-26.86-51.92-40.9399c-30.0699-24.41-59.22-50-86.85-77.15
		c-25.35-25.52-49.68-52.36-69.48-82.5c-11.45-17.54-21.45-36.24-27.59-56.33c-5.97-19.48-7.91-40.5701-3.12-60.52
		c4.01-17.62,13.03-33.8101,24.45-47.68c22.59-27.32,52.37-47.3701,82.44-65.56c30.86-18.28,62.79-34.63,94.49-51.39
		c35.31-18.99,70.77-38.12,103.04-62.06c25.39-18.93,49.2401-41.06,65.12-68.77c11.49-20.1,18.3-43.09,18.1801-66.31
		c0.64-20.79-3.76-41.4-10.4-61c-1.0699-2.83-1.6-6.02-3.63-8.36c-3.41-2.98-7.46-5.13-10.9399-8.03
		C1010.17,612.89,995.41,591.39,983.28,569.08z"/>
	<path fill="#1F1A17" stroke="#1F1A17" stroke-width="0.0938" d="M1154.58,504.14c10.65-1.94,21.7301-2.97,32.3101,0
		c16.5699,4.58,33.04,15.09,39.22,31.85c5.99,15.64,1.49,33.23-7.1,46.99c-10.1901,16.47-25.38,29.27-41.8101,39.23
		c-14.36,8.59-29.8199,15.46-46,19.79c-17.7,4.51-36.6499,6.13-54.46,1.4c1.65-1.94,3.33-4.06,3.8101-6.63
		c0.62-3.35-0.54-6.66-1.53-9.8c6.64-2.2599,13.6699-3.6299,19.8099-7.15c4.8101-2.76,8.3101-8.7,6.64-14.27
		c-1.64-5.37-6.78-8.3-10.8099-11.72c2.33-0.05,4.6699-0.03,7.01-0.04c11.5299,0.94,23.1599,0.79,34.7,0.05
		c4.51-0.28,9.42-0.46,13.27-3.1201c4.17-3.7,6.61-10.16,4.11-15.46c-4.11-8.83-14.58-12.87-17.86-22.2
		c5.74-1.45,11.84,0.17,17.52-1.81c7.46-2.56,14.95-5.2,21.95-8.89c4.23-2.36,8.99-5.91,8.79-11.32
		c0.6799-5.87-2.84-11.0099-7.4401-14.24c9.03-1.19,18.12-0.29,27.1801-0.53c-5.22-5.49-12.7001-8.29-20.15-8.78
		c-7.8099-0.49-15.72,0.49-23.15,2.93c-1.9199-0.7-4.0499-1.2-5.52-2.69C1154.8101,506.54,1154.65,505.34,1154.58,504.14z"/>
	<path fill="#0491DA" stroke="#0491DA" stroke-width="0.0938" d="M1076.64,538.68c24.0699-9.26,45.78-23.87,70.29-32.06
		c1.09,2.23,2.1599,4.5,2.8099,6.92c-7.13,2.2401-13.86,5.57-20.6899,8.57c-23.4501,10.75-47.2301,21.71-72.8201,26.19
		c-11.26,2.22-22.79,2.42-34.21,1.85c-5.14-0.41-10.31-0.97-15.25-2.4901c-1.58-1.2599-3.15-2.52-4.77-3.69
		c4.81,0.44,9.39,2.13,14.18,2.8101C1036.59,550.3,1057.6,546.31,1076.64,538.68z"/>
	<path fill="#C2C2C2" stroke="#C2C2C2" stroke-width="0.0938" d="M1160.59,510.42c7.4301-2.44,15.3401-3.42,23.15-2.93
		c7.45,0.49,14.9301,3.29,20.15,8.78c-9.0601,0.24-18.15-0.66-27.1801,0.53C1171.33,514.66,1166.08,512.24,1160.59,510.42z"/>
	<path fill="#0093DD" stroke="#0093DD" stroke-width="0.0938" d="M1156.0699,520.05c3.04-0.65,6.28-1.55,9.3201-0.36
		c4.0599,1.39,8.42,3.25,10.8099,7.04c1.38,2.57,1.51,6.52-1.4399,8.06c-6.17,4.04-13.36,6.09-20.1801,8.72
		c-7.88,3-16.26,5.07-23.4299,9.6c-2.1,1.07-1.5601,3.62-0.65,5.32c3.34,6.99,10.4399,10.96,14.98,17.02
		c2.4501,3.11,2.5,8.73-1.4299,10.66c-3.2301,1.12-6.7201,1.06-10.0801,1.21c-14.01,0.12-28.02-0.03-42.03,0.04
		c-4.11,0.12-8.33,0.15-12.2899,1.41c-1.87,1.33-0.5601,3.64,0.85,4.73c5.37,4.37,12.46,6.56,16.86,12.13
		c2.02,2.53,0.9501,6.45-1.74,8.06c-8.6801,4.96-19.28,5.29-27.85,10.46c1.53,3.0099,4.53,5.05,5.71,8.25
		c1.78,5.06-4.88,9.8199-9.3199,7.48c-18.16-6.79-34.04-18.79-46.88-33.19c-18.1201-20.4-31.1201-44.98-40.17-70.61
		c7.16,7.39,15.63,14.47,26.12,16.13c-3.61-4.27-8.73-7.18-11.42-12.22c3.51,0.95,7.12,1.93,10.19,3.98
		c1.62,1.17,3.19,2.4301,4.77,3.69c0.03,0.29,0.09,0.8701,0.12,1.16c11.8,3.36,23.89,5.81,36.12,6.82
		c17.61,1.46,34.0699-6.23,50.01-12.59C1113.64,534.39,1134.13,524.91,1156.0699,520.05z"/>
	<path fill="#00A2E2" stroke="#00A2E2" stroke-width="0.0938" d="M983.28,569.08c12.1299,22.31,26.89,43.81,47.15,59.53
		c3.48,2.9,7.5299,5.05,10.9399,8.03c2.03,2.34,2.5601,5.53,3.63,8.36c6.64,19.6,11.04,40.21,10.4,61
		c0.12,23.22-6.6901,46.21-18.1801,66.31c-15.8799,27.71-39.73,49.84-65.12,68.77c-32.27,23.94-67.73,43.07-103.04,62.06
		c-31.7,16.76-63.63,33.11-94.49,51.39c-30.07,18.1899-59.85,38.24-82.44,65.56c-11.42,13.8699-20.44,30.06-24.45,47.68
		c-4.79,19.95-2.85,41.04,3.12,60.52c6.14,20.09,16.14,38.7899,27.59,56.33c19.8,30.14,44.13,56.98,69.48,82.5
		c27.63,27.15,56.78,52.74,86.85,77.15c16.97,14.08,34.69,27.2,51.92,40.9399c-4.28,1.92-9.1,0.9501-13.63,0.9301
		c-22.5-1.51-44.88-4.53-67.19-7.79c-44.93-6.5599-89.59-14.87-134.04-24.14c-82.64-17.51-164.57-38.6799-244.78-65.26
		c-43.25-14.1899-85.9-30.1899-127.7-48.21c-34.2-14.95-67.93-31.09-100.29-49.71c-32.47-18.64-63.89-39.35-92.43-63.65
		c-36.58-31.13-69.37-68.73-86.91-114.01c-8.53-22.05-13.1-45.7-12.78-69.37c0.15-19.78,2.6-39.81,9.75-58.35
		c6.69-17.39,17.84-32.95,31.73-45.32c23.65-21.3,53.52-34.07,83.63-43.31c39.39-11.79,80.24-17.72,121.03-22.11
		c42.87-4.44,85.92-6.8,128.97-8.6299c10.73-1.08,21.52-0.64,32.24-1.7401c28.37-0.55,56.71-2.34,85.08-3.16
		c47.23-2.77,94.52-5.19,141.53-10.71c35.62-4.05,71.16-9.38,106.06-17.68c29.69-6.8,58.92-15.95,86.78-28.31
		c23.52-10.51,45.97-23.7,65.79-40.23c17.13-14.29,32.07-31.3,43.55-50.44C971.79,600.04,978.09,584.69,983.28,569.08
		 M966.46,637.38c-15.5,26.93-38.95,48.64-65.28,64.81c-38.58,23.89-82.23,38.11-126.05,48.88c-67.02,15.9-135.64,23.57-204.15,29.6
		c-97.97,8.72-196.41,12.38-293.99,25.26c-40.49,5.8-81.11,12.73-119.84,26.26c-18.99,6.75-37.61,15.11-54.02,26.95
		c-14.8,10.51-27.49,24.49-34.76,41.26c-5.95,13.36-7.44,28.12-8.22,42.56c-0.61,19.88,2.59,40.05,10.57,58.33
		c6.2,14.44,15.17,27.6301,26,38.9901c19.82,20.72,45.23,35.8199,72.48,44.5c9.3,2.6,19,5.7999,28.76,4.37
		c2.24-0.01,3.67-2.27,1.84-3.9301c-15.6-19.23-30.68-39.1899-41.27-61.7c-7.6-16.05-13.28-33.56-12.7-51.5
		c0.07-15.5,5.89-30.69,15.19-42.97c10.78-14.05,25.35-24.72,40.66-33.36c32.59-17.89,68.52-28.46,104.42-37.43
		c44.24-10.56,89.13-18.17,134.09-25c103.32-15.86,207.51-26.95,309.7-49.48c46.67-10.63,93.29-23.34,136.48-44.36
		c27.5-13.76,54.17-31.39,72.34-56.68c14.67-20.34,22.03-45.89,20.04-70.92C974.53,620.27,971.38,629.26,966.46,637.38
		 M1031.22,637.89c-2.6599,10.1-4.6,20.41-7.97,30.33c-11.31,37.33-31.02,71.9901-57.01,101.04
		c-11.49,11.85-23.03,23.74-36.11,33.86c-15.79,12.99-33,24.16-50.71,34.35c-31.88,18.27-65.62,33.1201-100.04,45.91
		c-37.07,14.22-74.95,26.15-112.26,39.71c-26.21,9.2-52.23,19.24-76.79,32.3c-10.27,5.84-20.8,11.43-29.98,18.96
		c-10.99,8.97-21.44,18.97-28.7,31.27c-4.85,8.96-8.89,18.58-10.28,28.75c-3.19,18.08-0.33,36.7,5.13,54.0601
		c12.9,45.0199,35.32,87.0499,64.36,123.72c37.44,46.48,85.08,84.39,137.79,112.22c6.54,2.98,12.5699,6.98,19.21,9.76
		c18.5,8.61,37.41,16.5599,57.15,21.9c8.45,2.34,17.2,5.24,26.08,3.88c-0.57-2.76-3.13-4.24-5.07-5.9501
		c-3.73-2.9099-6.83-6.49-10.39-9.5699c-6.96-5.6901-12.87-12.5-19.64-18.39c-11.4-10.58-22.18-21.83-33.18-32.8199
		c-26.65-28.27-52.45-57.5701-74.04-89.9601c-10.05-15.0599-19.52-30.6-26.77-47.23c-9.81-21.99-17.28-45.6799-17.11-69.99
		c-0.54-19.33,4.16-38.71,13.31-55.73c7.31-14.89,18.14-27.63,29.56-39.51c22.06-21.32,47.7-38.52,74.24-53.75
		c66.17-37.93,138.1-65.2,202.19-106.85c16.14-10.49,31.13-22.67,45.06-35.94c10.53-11.41,20.73-23.43,27.46-37.55
		c8.4401-15.79,12.4701-33.8,12.3401-51.67c-0.1801-20-5.27-39.67-13-58.03C1034.61,643.89,1033.9301,640.17,1031.22,637.89z"/>
	<path fill="#96D4F3" stroke="#96D4F3" stroke-width="0.0938" d="M1101.67,593.79c5.6699-1.49,11.5499-0.57,17.33-0.7
		c5.79,0.06,11.6801-0.8,17.37,0.75C1124.83,594.58,1113.2,594.73,1101.67,593.79z"/>
	<path fill="#76C5F0" stroke="#76C5F0" stroke-width="0.0938" d="M966.46,637.38c4.92-8.12,8.07-17.11,12.29-25.56
		c1.99,25.03-5.37,50.58-20.04,70.92c-18.17,25.29-44.84,42.92-72.34,56.68c-43.19,21.02-89.81,33.73-136.48,44.36
		c-102.19,22.53-206.38,33.62-309.7,49.48c-44.96,6.83-89.85,14.44-134.09,25c-35.9,8.97-71.83,19.54-104.42,37.43
		c-15.31,8.64-29.88,19.31-40.66,33.36c-9.3,12.28-15.12,27.47-15.19,42.97c-0.58,17.94,5.1,35.45,12.7,51.5
		c10.59,22.51,25.67,42.47,41.27,61.7c1.83,1.66,0.4,3.92-1.84,3.9301c-9.76,1.4299-19.46-1.77-28.76-4.37
		c-27.25-8.6801-52.66-23.78-72.48-44.5c-10.83-11.36-19.8-24.55-26-38.9901c-7.98-18.28-11.18-38.45-10.57-58.33
		c0.78-14.44,2.27-29.2,8.22-42.56c7.27-16.77,19.96-30.75,34.76-41.26c16.41-11.84,35.03-20.2,54.02-26.95
		c38.73-13.53,79.35-20.46,119.84-26.26c97.58-12.88,196.02-16.54,293.99-25.26c68.51-6.03,137.13-13.7,204.15-29.6
		c43.82-10.77,87.47-24.99,126.05-48.88C927.51,686.02,950.96,664.31,966.46,637.38z"/>
	<path fill="#007CC2" stroke="#007CC2" stroke-width="0.0938" d="M1031.22,637.89c2.7101,2.28,3.39,6,4.8301,9.08
		c7.73,18.36,12.8199,38.03,13,58.03c0.13,17.87-3.9,35.88-12.3401,51.67c-6.73,14.12-16.9299,26.14-27.46,37.55
		c-13.93,13.27-28.92,25.45-45.06,35.94C900.1,871.81,828.17,899.08,762,937.01c-26.54,15.23-52.18,32.43-74.24,53.75
		c-11.42,11.88-22.25,24.62-29.56,39.51c-9.15,17.02-13.85,36.4-13.31,55.73c-0.17,24.3101,7.3,48,17.11,69.99
		c7.25,16.63,16.72,32.17,26.77,47.23c21.59,32.39,47.39,61.6901,74.04,89.9601c11,10.99,21.78,22.24,33.18,32.8199
		c6.77,5.89,12.68,12.7,19.64,18.39c3.56,3.08,6.66,6.66,10.39,9.5699c1.94,1.7101,4.5,3.1901,5.07,5.9501
		c-8.88,1.36-17.63-1.54-26.08-3.88c-19.74-5.3401-38.65-13.29-57.15-21.9c-6.64-2.78-12.67-6.78-19.21-9.76
		c-52.71-27.83-100.35-65.74-137.79-112.22c-29.04-36.67-51.46-78.7001-64.36-123.72c-5.46-17.3601-8.32-35.9801-5.13-54.0601
		c1.39-10.17,5.43-19.79,10.28-28.75c7.2599-12.3,17.71-22.3,28.7-31.27c9.1801-7.53,19.71-13.12,29.98-18.96
		c24.56-13.06,50.58-23.1,76.79-32.3c37.31-13.56,75.19-25.4901,112.26-39.71c34.42-12.79,68.16-27.64,100.04-45.91
		c17.71-10.1899,34.92-21.36,50.71-34.35c13.08-10.12,24.62-22.01,36.11-33.86c25.99-29.05,45.7-63.71,57.01-101.04
		C1026.62,658.3,1028.5601,647.99,1031.22,637.89z"/>
</g>
</svg>
